<mxfile host="app.diagrams.net" modified="2024-02-27T08:39:26.347Z" agent="Mozilla/5.0 (Windows NT 10.0; Win64; x64) AppleWebKit/537.36 (KHTML, like Gecko) Chrome/120.0.0.0 Safari/537.36" etag="bNxkkquRMTRct-CEKc4c" version="23.1.1" type="github">
  <diagram name="Page-1" id="4pKFLtx7nEYNAY9ywYdt">
    <mxGraphModel dx="2022" dy="3060" grid="1" gridSize="10" guides="1" tooltips="1" connect="1" arrows="1" fold="1" page="1" pageScale="1" pageWidth="827" pageHeight="1169" math="0" shadow="0">
      <root>
        <mxCell id="0" />
        <mxCell id="1" parent="0" />
        <mxCell id="BuRFIuSdHMDAepd6z3iT-31" value="&lt;b&gt;&lt;font style=&quot;font-size: 20px;&quot;&gt;AF Views DQ Architecture&lt;/font&gt;&lt;/b&gt;" style="text;html=1;align=center;verticalAlign=middle;resizable=0;points=[];autosize=1;strokeColor=none;fillColor=none;" vertex="1" parent="1">
          <mxGeometry x="79" y="-1640" width="270" height="40" as="geometry" />
        </mxCell>
        <mxCell id="BuRFIuSdHMDAepd6z3iT-32" value="" style="sketch=0;points=[[0,0,0],[0.25,0,0],[0.5,0,0],[0.75,0,0],[1,0,0],[0,1,0],[0.25,1,0],[0.5,1,0],[0.75,1,0],[1,1,0],[0,0.25,0],[0,0.5,0],[0,0.75,0],[1,0.25,0],[1,0.5,0],[1,0.75,0]];outlineConnect=0;fontColor=#232F3E;fillColor=#8C4FFF;strokeColor=#ffffff;dashed=0;verticalLabelPosition=bottom;verticalAlign=top;align=center;html=1;fontSize=12;fontStyle=0;aspect=fixed;shape=mxgraph.aws4.resourceIcon;resIcon=mxgraph.aws4.redshift;" vertex="1" parent="1">
          <mxGeometry x="38" y="-1173" width="78" height="79" as="geometry" />
        </mxCell>
        <mxCell id="BuRFIuSdHMDAepd6z3iT-33" value="" style="sketch=0;points=[[0,0,0],[0.25,0,0],[0.5,0,0],[0.75,0,0],[1,0,0],[0,1,0],[0.25,1,0],[0.5,1,0],[0.75,1,0],[1,1,0],[0,0.25,0],[0,0.5,0],[0,0.75,0],[1,0.25,0],[1,0.5,0],[1,0.75,0]];outlineConnect=0;fontColor=#232F3E;fillColor=#ED7100;strokeColor=#ffffff;dashed=0;verticalLabelPosition=bottom;verticalAlign=top;align=center;html=1;fontSize=12;fontStyle=0;aspect=fixed;shape=mxgraph.aws4.resourceIcon;resIcon=mxgraph.aws4.lambda;" vertex="1" parent="1">
          <mxGeometry x="181" y="-1373" width="78" height="79" as="geometry" />
        </mxCell>
        <mxCell id="BuRFIuSdHMDAepd6z3iT-34" value="" style="sketch=0;points=[[0,0,0],[0.25,0,0],[0.5,0,0],[0.75,0,0],[1,0,0],[0,1,0],[0.25,1,0],[0.5,1,0],[0.75,1,0],[1,1,0],[0,0.25,0],[0,0.5,0],[0,0.75,0],[1,0.25,0],[1,0.5,0],[1,0.75,0]];outlineConnect=0;fontColor=#232F3E;fillColor=#7AA116;strokeColor=#ffffff;dashed=0;verticalLabelPosition=bottom;verticalAlign=top;align=center;html=1;fontSize=12;fontStyle=0;aspect=fixed;shape=mxgraph.aws4.resourceIcon;resIcon=mxgraph.aws4.s3;" vertex="1" parent="1">
          <mxGeometry x="-40" y="-1373" width="78" height="79" as="geometry" />
        </mxCell>
        <mxCell id="BuRFIuSdHMDAepd6z3iT-35" value="" style="sketch=0;points=[[0,0,0],[0.25,0,0],[0.5,0,0],[0.75,0,0],[1,0,0],[0,1,0],[0.25,1,0],[0.5,1,0],[0.75,1,0],[1,1,0],[0,0.25,0],[0,0.5,0],[0,0.75,0],[1,0.25,0],[1,0.5,0],[1,0.75,0]];outlineConnect=0;fontColor=#232F3E;fillColor=#7AA116;strokeColor=#ffffff;dashed=0;verticalLabelPosition=bottom;verticalAlign=top;align=center;html=1;fontSize=12;fontStyle=0;aspect=fixed;shape=mxgraph.aws4.resourceIcon;resIcon=mxgraph.aws4.s3;" vertex="1" parent="1">
          <mxGeometry x="398" y="-1373" width="78" height="79" as="geometry" />
        </mxCell>
        <mxCell id="BuRFIuSdHMDAepd6z3iT-36" value="" style="sketch=0;points=[[0,0,0],[0.25,0,0],[0.5,0,0],[0.75,0,0],[1,0,0],[0,1,0],[0.25,1,0],[0.5,1,0],[0.75,1,0],[1,1,0],[0,0.25,0],[0,0.5,0],[0,0.75,0],[1,0.25,0],[1,0.5,0],[1,0.75,0]];outlineConnect=0;fontColor=#232F3E;gradientColor=#4D72F3;gradientDirection=north;fillColor=#3334B9;strokeColor=#ffffff;dashed=0;verticalLabelPosition=bottom;verticalAlign=top;align=center;html=1;fontSize=12;fontStyle=0;aspect=fixed;shape=mxgraph.aws4.resourceIcon;resIcon=mxgraph.aws4.simple_email_service;" vertex="1" parent="1">
          <mxGeometry x="320" y="-1173" width="78" height="79" as="geometry" />
        </mxCell>
        <mxCell id="BuRFIuSdHMDAepd6z3iT-37" value="&lt;ol style=&quot;box-sizing: border-box; margin-top: 0px; margin-bottom: 1rem; color: rgb(50, 49, 48); font-family: &amp;quot;Segoe UI&amp;quot;, &amp;quot;Segoe UI Web (West European)&amp;quot;, &amp;quot;Segoe UI&amp;quot;, -apple-system, BlinkMacSystemFont, Roboto, &amp;quot;Helvetica Neue&amp;quot;, sans-serif; font-size: 14px; text-align: left; background-color: rgb(255, 255, 255);&quot;&gt;&lt;li style=&quot;border-color: var(--border-color); box-sizing: border-box;&quot;&gt;Amazon EventBridge triggers the AWS Lambda function at a specified time.&lt;/li&gt;&lt;li style=&quot;box-sizing: border-box;&quot;&gt;The function reads the config file which specifies the views and columns to check from an S3 bucket.&lt;/li&gt;&lt;li style=&quot;box-sizing: border-box;&quot;&gt;For each view in the config, the Lambda function runs SQL queries on Redshift to identify data quality issues. If any issues are found, the function creates CSV files and stores them temporarily in a&amp;nbsp;&lt;code style=&quot;color: var(--colorPaletteNavyBorderActive); box-sizing: border-box; font-family: SFMono-Regular, Menlo, Monaco, Consolas, &amp;quot;Liberation Mono&amp;quot;, &amp;quot;Courier New&amp;quot;, monospace; font-size: 12.25px; word-break: break-word; width: 100%;&quot;&gt;/tmp/&lt;/code&gt;&amp;nbsp;directory.&lt;/li&gt;&lt;li style=&quot;box-sizing: border-box;&quot;&gt;After processing all views, the Lambda function uploads all CSV files to an S3 bucket.&lt;/li&gt;&lt;li style=&quot;box-sizing: border-box;&quot;&gt;An email is composed with all the CSV files attached, if their combined size exceeds the SES limit, pre-signed URLs to the S3 bucket where the files are stored are attached instead. The email is sent to the specified recipients using Amazon SES.&lt;/li&gt;&lt;/ol&gt;" style="rounded=0;whiteSpace=wrap;html=1;" vertex="1" parent="1">
          <mxGeometry x="-160" y="-1003" width="760" height="350" as="geometry" />
        </mxCell>
        <mxCell id="BuRFIuSdHMDAepd6z3iT-38" value="" style="sketch=0;points=[[0,0,0],[0.25,0,0],[0.5,0,0],[0.75,0,0],[1,0,0],[0,1,0],[0.25,1,0],[0.5,1,0],[0.75,1,0],[1,1,0],[0,0.25,0],[0,0.5,0],[0,0.75,0],[1,0.25,0],[1,0.5,0],[1,0.75,0]];outlineConnect=0;fontColor=#232F3E;fillColor=#E7157B;strokeColor=#ffffff;dashed=0;verticalLabelPosition=bottom;verticalAlign=top;align=center;html=1;fontSize=12;fontStyle=0;aspect=fixed;shape=mxgraph.aws4.resourceIcon;resIcon=mxgraph.aws4.eventbridge;" vertex="1" parent="1">
          <mxGeometry x="181" y="-1533" width="78" height="78" as="geometry" />
        </mxCell>
        <mxCell id="BuRFIuSdHMDAepd6z3iT-39" value="" style="shape=flexArrow;endArrow=classic;startArrow=classic;html=1;rounded=0;entryX=0;entryY=0.5;entryDx=0;entryDy=0;entryPerimeter=0;" edge="1" parent="1" target="BuRFIuSdHMDAepd6z3iT-33">
          <mxGeometry width="100" height="100" relative="1" as="geometry">
            <mxPoint x="40" y="-1333" as="sourcePoint" />
            <mxPoint x="151" y="-1333.92" as="targetPoint" />
          </mxGeometry>
        </mxCell>
        <mxCell id="BuRFIuSdHMDAepd6z3iT-40" value="" style="shape=flexArrow;endArrow=classic;startArrow=classic;html=1;rounded=0;entryX=0;entryY=1;entryDx=0;entryDy=0;entryPerimeter=0;exitX=1;exitY=0;exitDx=0;exitDy=0;exitPerimeter=0;" edge="1" parent="1" source="BuRFIuSdHMDAepd6z3iT-32" target="BuRFIuSdHMDAepd6z3iT-33">
          <mxGeometry width="100" height="100" relative="1" as="geometry">
            <mxPoint x="139" y="-1212" as="sourcePoint" />
            <mxPoint x="239" y="-1312" as="targetPoint" />
          </mxGeometry>
        </mxCell>
        <mxCell id="BuRFIuSdHMDAepd6z3iT-41" value="" style="shape=flexArrow;endArrow=classic;html=1;rounded=0;exitX=1;exitY=0.5;exitDx=0;exitDy=0;exitPerimeter=0;entryX=0;entryY=0.5;entryDx=0;entryDy=0;entryPerimeter=0;" edge="1" parent="1" source="BuRFIuSdHMDAepd6z3iT-33" target="BuRFIuSdHMDAepd6z3iT-35">
          <mxGeometry width="50" height="50" relative="1" as="geometry">
            <mxPoint x="311" y="-1333.92" as="sourcePoint" />
            <mxPoint x="360" y="-1334" as="targetPoint" />
          </mxGeometry>
        </mxCell>
        <mxCell id="BuRFIuSdHMDAepd6z3iT-42" value="" style="shape=flexArrow;endArrow=classic;html=1;rounded=0;entryX=0;entryY=0;entryDx=0;entryDy=0;entryPerimeter=0;" edge="1" parent="1" target="BuRFIuSdHMDAepd6z3iT-36">
          <mxGeometry width="50" height="50" relative="1" as="geometry">
            <mxPoint x="260" y="-1293" as="sourcePoint" />
            <mxPoint x="309" y="-1323" as="targetPoint" />
          </mxGeometry>
        </mxCell>
        <mxCell id="BuRFIuSdHMDAepd6z3iT-43" value="" style="shape=flexArrow;endArrow=classic;html=1;rounded=0;entryX=0.5;entryY=0;entryDx=0;entryDy=0;entryPerimeter=0;" edge="1" parent="1" target="BuRFIuSdHMDAepd6z3iT-33">
          <mxGeometry width="50" height="50" relative="1" as="geometry">
            <mxPoint x="219.57999999999998" y="-1455" as="sourcePoint" />
            <mxPoint x="219.57999999999998" y="-1395" as="targetPoint" />
          </mxGeometry>
        </mxCell>
        <mxCell id="BuRFIuSdHMDAepd6z3iT-44" value="Trigger Lambda Function" style="text;html=1;align=center;verticalAlign=middle;resizable=0;points=[];autosize=1;strokeColor=none;fillColor=none;" vertex="1" parent="1">
          <mxGeometry x="238" y="-1443" width="160" height="30" as="geometry" />
        </mxCell>
        <mxCell id="BuRFIuSdHMDAepd6z3iT-45" value="Read Config" style="text;html=1;align=center;verticalAlign=middle;resizable=0;points=[];autosize=1;strokeColor=none;fillColor=none;" vertex="1" parent="1">
          <mxGeometry x="80" y="-1363" width="90" height="30" as="geometry" />
        </mxCell>
        <mxCell id="BuRFIuSdHMDAepd6z3iT-46" value="Run Queries" style="text;html=1;align=center;verticalAlign=middle;resizable=0;points=[];autosize=1;strokeColor=none;fillColor=none;rotation=-60;" vertex="1" parent="1">
          <mxGeometry x="91" y="-1253" width="90" height="30" as="geometry" />
        </mxCell>
        <mxCell id="BuRFIuSdHMDAepd6z3iT-47" value="Save Results" style="text;html=1;strokeColor=none;fillColor=none;align=center;verticalAlign=middle;whiteSpace=wrap;rounded=0;" vertex="1" parent="1">
          <mxGeometry x="279" y="-1363" width="96" height="30" as="geometry" />
        </mxCell>
        <mxCell id="BuRFIuSdHMDAepd6z3iT-48" value="Send Results" style="text;html=1;strokeColor=none;fillColor=none;align=center;verticalAlign=middle;whiteSpace=wrap;rounded=0;rotation=60;" vertex="1" parent="1">
          <mxGeometry x="250" y="-1263" width="100" height="30" as="geometry" />
        </mxCell>
        <mxCell id="BuRFIuSdHMDAepd6z3iT-49" value="&lt;b&gt;&lt;font style=&quot;font-size: 20px;&quot; face=&quot;Times New Roman&quot;&gt;1&lt;/font&gt;&lt;/b&gt;" style="text;html=1;strokeColor=none;fillColor=none;align=center;verticalAlign=middle;whiteSpace=wrap;rounded=0;" vertex="1" parent="1">
          <mxGeometry x="210" y="-1443" width="60" height="30" as="geometry" />
        </mxCell>
        <mxCell id="BuRFIuSdHMDAepd6z3iT-50" value="&lt;b&gt;&lt;font style=&quot;font-size: 20px;&quot; face=&quot;Times New Roman&quot;&gt;2&lt;/font&gt;&lt;/b&gt;" style="text;html=1;strokeColor=none;fillColor=none;align=center;verticalAlign=middle;whiteSpace=wrap;rounded=0;" vertex="1" parent="1">
          <mxGeometry x="47" y="-1363" width="60" height="30" as="geometry" />
        </mxCell>
        <mxCell id="BuRFIuSdHMDAepd6z3iT-51" value="&lt;b&gt;&lt;font style=&quot;font-size: 20px;&quot; face=&quot;Times New Roman&quot;&gt;3&lt;br&gt;&lt;/font&gt;&lt;/b&gt;" style="text;html=1;strokeColor=none;fillColor=none;align=center;verticalAlign=middle;whiteSpace=wrap;rounded=0;rotation=-60;" vertex="1" parent="1">
          <mxGeometry x="89" y="-1263" width="60" height="30" as="geometry" />
        </mxCell>
        <mxCell id="BuRFIuSdHMDAepd6z3iT-52" value="&lt;b&gt;&lt;font style=&quot;font-size: 20px;&quot; face=&quot;Times New Roman&quot;&gt;4&lt;/font&gt;&lt;/b&gt;" style="text;html=1;strokeColor=none;fillColor=none;align=center;verticalAlign=middle;whiteSpace=wrap;rounded=0;" vertex="1" parent="1">
          <mxGeometry x="250" y="-1363" width="60" height="30" as="geometry" />
        </mxCell>
        <mxCell id="BuRFIuSdHMDAepd6z3iT-53" value="&lt;b&gt;&lt;font style=&quot;font-size: 20px;&quot; face=&quot;Times New Roman&quot;&gt;5&lt;br&gt;&lt;/font&gt;&lt;/b&gt;" style="text;html=1;strokeColor=none;fillColor=none;align=center;verticalAlign=middle;whiteSpace=wrap;rounded=0;rotation=60;" vertex="1" parent="1">
          <mxGeometry x="288" y="-1273" width="60" height="30" as="geometry" />
        </mxCell>
        <mxCell id="BuRFIuSdHMDAepd6z3iT-54" value="&lt;b&gt;EventBridge&lt;/b&gt;" style="text;html=1;strokeColor=none;fillColor=none;align=center;verticalAlign=middle;whiteSpace=wrap;rounded=0;" vertex="1" parent="1">
          <mxGeometry x="190" y="-1560" width="60" height="30" as="geometry" />
        </mxCell>
        <mxCell id="BuRFIuSdHMDAepd6z3iT-55" value="&lt;b style=&quot;border-color: var(--border-color); color: rgb(0, 0, 0); font-family: Helvetica; font-size: 12px; font-style: normal; font-variant-ligatures: normal; font-variant-caps: normal; letter-spacing: normal; orphans: 2; text-align: center; text-indent: 0px; text-transform: none; widows: 2; word-spacing: 0px; -webkit-text-stroke-width: 0px; background-color: rgb(255, 255, 255); text-decoration-thickness: initial; text-decoration-style: initial; text-decoration-color: initial;&quot;&gt;S3 Bucket&lt;/b&gt;" style="text;whiteSpace=wrap;html=1;" vertex="1" parent="1">
          <mxGeometry x="-32" y="-1400" width="70" height="40" as="geometry" />
        </mxCell>
        <mxCell id="BuRFIuSdHMDAepd6z3iT-56" value="&lt;b style=&quot;border-color: var(--border-color); color: rgb(0, 0, 0); font-family: Helvetica; font-size: 12px; font-style: normal; font-variant-ligatures: normal; font-variant-caps: normal; letter-spacing: normal; orphans: 2; text-align: center; text-indent: 0px; text-transform: none; widows: 2; word-spacing: 0px; -webkit-text-stroke-width: 0px; background-color: rgb(255, 255, 255); text-decoration-thickness: initial; text-decoration-style: initial; text-decoration-color: initial;&quot;&gt;S3 Bucket&lt;/b&gt;" style="text;whiteSpace=wrap;html=1;" vertex="1" parent="1">
          <mxGeometry x="406" y="-1400" width="70" height="40" as="geometry" />
        </mxCell>
        <mxCell id="BuRFIuSdHMDAepd6z3iT-57" value="&lt;b style=&quot;border-color: var(--border-color); color: rgb(0, 0, 0); font-family: Helvetica; font-size: 12px; font-style: normal; font-variant-ligatures: normal; font-variant-caps: normal; letter-spacing: normal; orphans: 2; text-align: center; text-indent: 0px; text-transform: none; widows: 2; word-spacing: 0px; -webkit-text-stroke-width: 0px; background-color: rgb(255, 255, 255); text-decoration-thickness: initial; text-decoration-style: initial; text-decoration-color: initial;&quot;&gt;Redshift&lt;/b&gt;" style="text;whiteSpace=wrap;html=1;" vertex="1" parent="1">
          <mxGeometry x="50" y="-1200" width="50" height="40" as="geometry" />
        </mxCell>
        <mxCell id="BuRFIuSdHMDAepd6z3iT-58" value="&lt;b style=&quot;border-color: var(--border-color); color: rgb(0, 0, 0); font-family: Helvetica; font-size: 12px; font-style: normal; font-variant-ligatures: normal; font-variant-caps: normal; letter-spacing: normal; orphans: 2; text-align: center; text-indent: 0px; text-transform: none; widows: 2; word-spacing: 0px; -webkit-text-stroke-width: 0px; background-color: rgb(255, 255, 255); text-decoration-thickness: initial; text-decoration-style: initial; text-decoration-color: initial;&quot;&gt;SES&lt;/b&gt;" style="text;whiteSpace=wrap;html=1;" vertex="1" parent="1">
          <mxGeometry x="348" y="-1200" width="30" height="40" as="geometry" />
        </mxCell>
      </root>
    </mxGraphModel>
  </diagram>
</mxfile>
